<svg width="350" height="350" viewBox="0 0 350 350" fill="none" xmlns="http://www.w3.org/2000/svg">
<g clip-path="url(#clip0_1_5)">
<path d="M330 0H20C8.9543 0 0 8.9543 0 20V330C0 341.046 8.9543 350 20 350H330C341.046 350 350 341.046 350 330V20C350 8.9543 341.046 0 330 0Z" fill="white"/>
<path d="M190.43 162.603L250.745 94H236.454L184.059 153.555L142.242 94H94L157.25 184.065L94 256H108.291L163.587 193.093L207.758 256H256L190.43 162.603ZM170.85 184.856L164.432 175.882L113.444 104.542H135.398L176.559 162.137L182.95 171.111L236.447 245.972H214.494L170.85 184.856Z" fill="black"/>
</g>
<defs>
<clipPath id="clip0_1_5">
<rect width="350" height="350" fill="white"/>
</clipPath>
</defs>
</svg>
